<svg width="56" height="56" viewBox="0 0 56 56" fill="none" xmlns="http://www.w3.org/2000/svg">
<path d="M17.5551 14.7795C17.5546 15.7813 17.1561 16.742 16.4473 17.45C15.7386 18.1581 14.7775 18.5556 13.7757 18.5551C12.7738 18.5546 11.8132 18.1562 11.1051 17.4474C10.397 16.7386 9.9995 15.7776 10 14.7757C10.0005 13.7738 10.399 12.8132 11.1078 12.1051C11.8165 11.397 12.7776 10.9995 13.7794 11C14.7813 11.0005 15.7419 11.399 16.45 12.1078C17.1581 12.8165 17.5556 13.7776 17.5551 14.7795ZM17.6684 21.3524H10.1133V45H17.6684V21.3524ZM29.6055 21.3524H22.0881V45H29.5299V32.5907C29.5299 25.6777 38.5393 25.0356 38.5393 32.5907V45H46V30.0219C46 18.3681 32.6653 18.8026 29.5299 24.5256L29.6055 21.3524Z" fill="black"/>
</svg>
