<svg width="56" height="56" viewBox="0 0 56 56" fill="none" xmlns="http://www.w3.org/2000/svg">
<path fill-rule="evenodd" clip-rule="evenodd" d="M23.8561 26.5431C25.0912 25.9948 26.1528 25.119 26.9258 24.0105C27.6532 22.8058 28.0116 21.4144 27.9567 20.0082C28.0055 18.7226 27.7682 17.4423 27.2618 16.2596C26.8483 15.2522 26.1688 14.3761 25.2961 13.7248C24.3818 13.0619 23.3418 12.6116 22.2492 12.4082C20.9588 12.1214 19.6396 11.9849 18.3178 12.0013H4.68572C4.50385 12.0013 4.32944 12.0736 4.20084 12.2022C4.07224 12.3308 4 12.5052 4 12.687V43.1808C4 43.3627 4.07224 43.5371 4.20084 43.6657C4.32944 43.7943 4.50385 43.8666 4.68572 43.8666H18.6286C19.9635 43.8666 21.2938 43.6883 22.5829 43.334C23.8154 42.9939 24.9772 42.4366 26.0138 41.6883C27.0377 40.9366 27.8617 39.9454 28.4138 38.8014C29.0389 37.4986 29.343 36.0652 29.3007 34.6208C29.349 32.8349 28.873 31.074 27.9315 29.5557C26.9543 28.0652 25.459 26.9902 23.7349 26.5385L23.8561 26.5431ZM10.9715 17.1442C10.8502 17.1442 10.7339 17.1924 10.6482 17.2781C10.5625 17.3638 10.5143 17.4801 10.5143 17.6013V24.6871C10.5143 24.9385 10.72 25.1442 10.9715 25.1442H17.3715C18.4324 25.1442 19.4498 24.7228 20.1999 23.9726C20.9501 23.2225 21.3715 22.2051 21.3715 21.1442C21.3715 20.0833 20.9501 19.0659 20.1999 18.3158C19.4498 17.5656 18.4324 17.1442 17.3715 17.1442H10.9715ZM10.5143 29.6014C10.5143 29.3499 10.72 29.1442 10.9715 29.1442H17.6572C18.9454 29.1442 20.1808 29.656 21.0917 30.5669C22.0026 31.4778 22.5144 32.7132 22.5144 34.0014C22.5144 35.2896 22.0026 36.525 21.0917 37.4359C20.1808 38.3468 18.9454 38.8585 17.6572 38.8585H10.9715C10.8502 38.8585 10.7339 38.8104 10.6482 38.7246C10.5625 38.6389 10.5143 38.5226 10.5143 38.4014V29.6014Z" fill="black"/>
<path d="M35.8607 13.6242H46.6562C46.8365 13.6242 47.0095 13.6952 47.1378 13.8218C47.2662 13.9484 47.3395 14.1205 47.3419 14.3008L47.3716 16.4996C47.3728 16.5904 47.356 16.6806 47.322 16.7648C47.2881 16.8491 47.2378 16.9258 47.174 16.9904C47.1102 17.0551 47.0342 17.1064 46.9504 17.1414C46.8666 17.1765 46.7767 17.1945 46.6859 17.1945H35.8607C35.6788 17.1945 35.5044 17.1222 35.3758 16.9936C35.2472 16.865 35.175 16.6906 35.175 16.5088V14.3099C35.175 14.128 35.2472 13.9536 35.3758 13.825C35.5044 13.6964 35.6788 13.6242 35.8607 13.6242Z" fill="black"/>
<path fill-rule="evenodd" clip-rule="evenodd" d="M41.6504 39.1328C42.763 39.1658 43.8562 38.837 44.7659 38.1957C45.3602 37.8003 45.8333 37.2357 46.1327 36.5683C46.1713 36.4821 46.2334 36.4085 46.3118 36.356C46.3902 36.3034 46.4818 36.274 46.5762 36.2711H50.967C51.2642 36.2711 51.4836 36.55 51.3945 36.8334C50.7436 38.9798 49.4317 40.866 47.6459 42.2231C45.7661 43.4469 43.5564 44.0652 41.3144 43.9946C39.7213 44.0229 38.1387 43.7307 36.6607 43.1351C35.3167 42.5671 34.1199 41.7002 33.1613 40.6003C32.2123 39.4583 31.4949 38.1423 31.0492 36.726C30.5154 35.1436 30.2564 33.4815 30.2835 31.8117C30.2686 30.1654 30.5361 28.5287 31.0744 26.9728C31.5668 25.5497 32.3411 24.2406 33.351 23.1236C34.3417 22.0474 35.5419 21.1848 36.8778 20.5888C38.314 19.9611 39.866 19.6418 41.4333 19.6516C43.1026 19.6285 44.7514 20.0212 46.231 20.7945C47.5844 21.5432 48.7491 22.5907 49.6367 23.8574C50.5305 25.1785 51.1819 26.6642 51.5545 28.2391C51.9379 29.8991 52.0749 31.6066 51.9613 33.3065H36.087C36.0106 34.9253 36.5403 36.5145 37.5727 37.7637C38.1258 38.2757 38.775 38.662 39.4767 38.8974C40.1784 39.1328 40.919 39.2128 41.6504 39.1328ZM36.2287 28.9134C36.2284 28.9438 36.2342 28.9739 36.2456 29.0021C36.2571 29.0302 36.2741 29.0558 36.2956 29.0773C36.3171 29.0988 36.3427 29.1158 36.3708 29.1273C36.399 29.1388 36.4292 29.1445 36.4596 29.1442H45.7122C45.7426 29.1445 45.7727 29.1388 45.8009 29.1273C45.829 29.1158 45.8546 29.0988 45.8761 29.0773C45.8976 29.0558 45.9146 29.0302 45.9261 29.0021C45.9376 28.9739 45.9433 28.9438 45.943 28.9134C45.943 27.6864 45.4556 26.5097 44.588 25.6421C43.7204 24.7745 42.5437 24.2871 41.3167 24.2871H40.855C39.628 24.2871 38.4513 24.7745 37.5837 25.6421C36.7161 26.5097 36.2287 27.6864 36.2287 28.9134Z" fill="black"/>
</svg>
