<svg width="44" height="42" viewBox="0 0 44 42" fill="none" xmlns="http://www.w3.org/2000/svg">
<path d="M2 38C2.00023 35.4819 2.59479 32.9995 3.73531 30.7545C4.87584 28.5095 6.53013 26.5654 8.56365 25.0804C10.5972 23.5953 12.9525 22.6111 15.4381 22.2079C17.9237 21.8047 20.4693 21.9939 22.868 22.76M42 40L38.2 36.2M28 12C28 17.5228 23.5228 22 18 22C12.4772 22 8 17.5228 8 12C8 6.47715 12.4772 2 18 2C23.5228 2 28 6.47715 28 12ZM40 32C40 35.3137 37.3137 38 34 38C30.6863 38 28 35.3137 28 32C28 28.6863 30.6863 26 34 26C37.3137 26 40 28.6863 40 32Z" stroke="#FD8EA1" stroke-width="4" stroke-linecap="round" stroke-linejoin="round"/>
</svg>
