<svg width="42" height="42" viewBox="0 0 42 42" fill="none" xmlns="http://www.w3.org/2000/svg">
<path d="M24.7956 11.4985L30.495 17.1976M7.69722 9.59882V17.1976M34.2947 24.7965V32.3953M17.1963 2V5.79941M11.4969 13.3982H3.89758M38.0943 28.5959H30.495M19.0961 3.89971H15.2965M39.3102 5.11552L36.8784 2.68389C36.6646 2.46793 36.4102 2.29649 36.1297 2.17948C35.8493 2.06248 35.5484 2.00223 35.2446 2.00223C34.9407 2.00223 34.6398 2.06248 34.3594 2.17948C34.0789 2.29649 33.8245 2.46793 33.6107 2.68389L2.6817 33.6111C2.46572 33.8248 2.29427 34.0793 2.17726 34.3597C2.06025 34.6401 2 34.941 2 35.2448C2 35.5487 2.06025 35.8495 2.17726 36.13C2.29427 36.4104 2.46572 36.6648 2.6817 36.8786L5.11347 39.3102C5.32591 39.5285 5.57994 39.702 5.86056 39.8205C6.14118 39.939 6.4427 40 6.74731 40C7.05192 40 7.35344 39.939 7.63406 39.8205C7.91468 39.702 8.16871 39.5285 8.38115 39.3102L39.3102 8.38301C39.5285 8.17058 39.702 7.91657 39.8205 7.63596C39.939 7.35536 40 7.05385 40 6.74926C40 6.44467 39.939 6.14317 39.8205 5.86257C39.702 5.58196 39.5285 5.32794 39.3102 5.11552Z" stroke="#86A8EC" stroke-width="4" stroke-linecap="round" stroke-linejoin="round"/>
</svg>
