<svg width="56" height="56" viewBox="0 0 56 56" fill="none" xmlns="http://www.w3.org/2000/svg">
<path d="M28 10C23.1152 10 22.501 10.0225 20.5818 10.108C18.6625 10.198 17.3552 10.4995 16.21 10.945C15.0081 11.3957 13.9198 12.1046 13.0218 13.0218C12.1046 13.9198 11.3957 15.0081 10.945 16.21C10.4995 17.353 10.1958 18.6625 10.108 20.575C10.0225 22.4987 10 23.1108 10 28.0023C10 32.8893 10.0225 33.5013 10.108 35.4205C10.198 37.3375 10.4995 38.6447 10.945 39.79C11.4062 40.9735 12.0205 41.977 13.0218 42.9782C14.0208 43.9795 15.0243 44.596 16.2078 45.055C17.3553 45.5005 18.6603 45.8042 20.5773 45.892C22.4988 45.9775 23.1107 46 28 46C32.8893 46 33.499 45.9775 35.4205 45.892C37.3353 45.802 38.647 45.5005 39.7923 45.055C40.9933 44.604 42.0808 43.8951 42.9782 42.9782C43.9795 41.977 44.5937 40.9735 45.055 39.79C45.4982 38.6447 45.802 37.3375 45.892 35.4205C45.9775 33.5013 46 32.8893 46 28C46 23.1107 45.9775 22.4988 45.892 20.5773C45.802 18.6625 45.4982 17.353 45.055 16.21C44.6043 15.0081 43.8954 13.9198 42.9782 13.0218C42.0802 12.1046 40.9918 11.3957 39.79 10.945C38.6425 10.4995 37.333 10.1958 35.4182 10.108C33.4967 10.0225 32.887 10 27.9955 10H28ZM26.3867 13.2445H28.0023C32.8083 13.2445 33.3775 13.2603 35.2742 13.348C37.0292 13.4268 37.9832 13.7215 38.6177 13.9668C39.457 14.293 40.0577 14.6845 40.6877 15.3145C41.3177 15.9445 41.707 16.543 42.0333 17.3845C42.2808 18.0168 42.5733 18.9708 42.652 20.7258C42.7398 22.6225 42.7578 23.1918 42.7578 27.9955C42.7578 32.7993 42.7398 33.3707 42.652 35.2675C42.5733 37.0225 42.2785 37.9743 42.0333 38.6088C41.7426 39.3893 41.2823 40.0955 40.6855 40.6765C40.0555 41.3065 39.457 41.6958 38.6155 42.022C37.9855 42.2695 37.0315 42.562 35.2742 42.643C33.3775 42.7285 32.8083 42.7488 28.0023 42.7488C23.1963 42.7488 22.6248 42.7285 20.728 42.643C18.973 42.562 18.0212 42.2695 17.3867 42.022C16.6056 41.7323 15.8986 41.2728 15.3167 40.6765C14.7189 40.0951 14.2577 39.388 13.9668 38.6065C13.7215 37.9742 13.4268 37.0203 13.348 35.2653C13.2625 33.3685 13.2445 32.7992 13.2445 27.991C13.2445 23.1827 13.2625 22.618 13.348 20.7212C13.429 18.9662 13.7215 18.0123 13.969 17.3778C14.2953 16.5385 14.6867 15.9377 15.3167 15.3077C15.9467 14.6777 16.5452 14.2885 17.3867 13.9623C18.0212 13.7148 18.973 13.4223 20.728 13.3413C22.3885 13.2648 23.032 13.2423 26.3867 13.24V13.2445ZM37.6097 16.2325C37.3261 16.2325 37.0452 16.2884 36.7832 16.3969C36.5211 16.5055 36.283 16.6646 36.0824 16.8651C35.8818 17.0657 35.7227 17.3038 35.6142 17.5659C35.5056 17.828 35.4497 18.1088 35.4497 18.3925C35.4497 18.6762 35.5056 18.957 35.6142 19.2191C35.7227 19.4812 35.8818 19.7193 36.0824 19.9199C36.283 20.1204 36.5211 20.2795 36.7832 20.3881C37.0452 20.4966 37.3261 20.5525 37.6097 20.5525C38.1826 20.5525 38.732 20.3249 39.1371 19.9199C39.5422 19.5148 39.7697 18.9654 39.7697 18.3925C39.7697 17.8196 39.5422 17.2702 39.1371 16.8651C38.732 16.4601 38.1826 16.2325 37.6097 16.2325ZM28.0023 18.757C26.7762 18.7379 25.5585 18.9628 24.4202 19.4188C23.2819 19.8748 22.2457 20.5527 21.3718 21.413C20.498 22.2732 19.8041 23.2988 19.3304 24.4298C18.8567 25.5609 18.6128 26.7749 18.6128 28.0011C18.6128 29.2274 18.8567 30.4414 19.3304 31.5724C19.8041 32.7035 20.498 33.729 21.3718 34.5893C22.2457 35.4496 23.2819 36.1275 24.4202 36.5834C25.5585 37.0394 26.7762 37.2644 28.0023 37.2453C30.429 37.2074 32.7435 36.2168 34.4462 34.4873C36.1489 32.7578 37.1033 30.4281 37.1033 28.0011C37.1033 25.5741 36.1489 23.2444 34.4462 21.5149C32.7435 19.7854 30.429 18.7949 28.0023 18.757ZM28.0023 21.9993C28.7903 21.9993 29.5706 22.1545 30.2986 22.456C31.0267 22.7576 31.6882 23.1996 32.2454 23.7568C32.8026 24.3141 33.2447 24.9756 33.5462 25.7036C33.8478 26.4317 34.003 27.212 34.003 28C34.003 28.788 33.8478 29.5683 33.5462 30.2964C33.2447 31.0244 32.8026 31.6859 32.2454 32.2432C31.6882 32.8004 31.0267 33.2424 30.2986 33.544C29.5706 33.8455 28.7903 34.0007 28.0023 34.0007C26.4108 34.0007 24.8844 33.3685 23.7591 32.2432C22.6337 31.1178 22.0015 29.5915 22.0015 28C22.0015 26.4085 22.6337 24.8822 23.7591 23.7568C24.8844 22.6315 26.4108 21.9993 28.0023 21.9993Z" fill="black"/>
</svg>
