<svg width="374" height="72" viewBox="0 0 374 72" fill="none" xmlns="http://www.w3.org/2000/svg">
<path d="M46.7253 9.14648H54.3891L52.3125 23.7324L66.0084 9.14648H75.3533L60.3718 24.7708L65.2173 32.9784C66.3545 35.0056 68.0356 36.044 70.2606 36.044H71.7439L70.755 43.2628H68.4312C63.4374 43.2628 60.0752 41.3345 58.1963 37.5273L54.4386 30.7535L50.8292 34.2145L49.5931 43.2628H41.9293L46.7253 9.14648Z" fill="#FF75A8"/>
<path d="M74.3146 29.6663C75.4024 22.2991 80.8907 17.4536 87.3678 17.4536C90.9278 17.4536 93.6966 18.7392 95.4766 20.8652L95.8722 18.0469H103.091L100.817 34.2645C100.668 35.649 101.262 36.2917 102.547 36.2917H103.042L102.053 43.2633H100.025C96.7127 43.2633 94.5866 42.225 93.7461 40.0989C91.62 42.4722 88.8017 43.8567 85.6373 43.8567C78.0229 43.8567 73.1774 37.7256 74.3146 29.6663ZM94.0427 31.0507C94.5866 27.2435 92.1639 24.4252 88.3072 24.4252C84.9945 24.4252 82.2256 26.8974 81.7806 30.1607C81.2368 33.9679 83.709 36.8851 87.5656 36.8851C90.7794 36.8851 93.5483 34.3634 94.0427 31.0507Z" fill="#FF75A8"/>
<path d="M111.051 23.6334C109.766 22.4962 109.073 20.8645 109.37 19.0846C109.716 16.5629 111.694 14.8818 114.364 14.8818C117.034 14.8818 118.814 16.5135 118.962 18.7879L134.29 20.5679L134.043 22.2984C130.779 26.1056 128.851 29.4678 128.455 32.2861C128.109 34.8572 129.296 36.291 131.818 36.291H132.856L131.867 43.2626H130.136C123.115 43.2626 119.902 39.2082 120.94 32.5827C121.237 30.5061 121.978 28.4789 123.313 26.4023L117.331 25.6112L111.496 43.2626H104.376L111.051 23.6334Z" fill="#FF75A8"/>
<path d="M139.234 18.0465H146.453L142.893 43.2629H135.674L139.234 18.0465ZM139.432 10.1355C139.778 7.81159 141.805 6.08105 144.129 6.08105C146.898 6.08105 148.728 8.10825 148.381 10.8771C148.035 13.2504 146.008 14.9315 143.684 14.9315C140.866 14.9315 139.086 12.8549 139.432 10.1355Z" fill="#FF75A8"/>
<path d="M152.286 18.0469H159.505L159.159 20.4697C161.384 18.4919 164.103 17.4536 167.119 17.4536C173.003 17.4536 176.316 21.2113 175.426 27.8368L174.536 34.2645C174.338 35.649 174.931 36.2917 176.266 36.2917H176.761L175.772 43.2633H173.745C168.652 43.2633 166.378 40.7911 167.07 35.8467L168.009 29.4685C168.405 26.403 166.773 24.4252 163.757 24.4252C160.741 24.4252 158.714 26.1557 157.972 28.8257L155.945 43.2633H148.726L152.286 18.0469Z" fill="#FF75A8"/>
<path d="M179.628 29.6663C180.716 22.2991 186.205 17.4536 192.682 17.4536C196.242 17.4536 199.01 18.7392 200.79 20.8652L201.186 18.0469H208.405L206.13 34.2645C205.982 35.649 206.575 36.2917 207.861 36.2917H208.355L207.366 43.2633H205.339C202.027 43.2633 199.9 42.225 199.06 40.0989C196.934 42.4722 194.116 43.8567 190.951 43.8567C183.337 43.8567 178.491 37.7256 179.628 29.6663ZM199.357 31.0507C199.9 27.2435 197.478 24.4252 193.621 24.4252C190.308 24.4252 187.539 26.8974 187.094 30.1607C186.551 33.9679 189.023 36.8851 192.879 36.8851C196.093 36.8851 198.862 34.3634 199.357 31.0507Z" fill="#FF75A8"/>
<path d="M213.999 24.8557C215.284 15.6096 223.492 8.6875 233.035 8.6875C242.577 8.6875 249.499 14.3241 249.895 22.2846H241.786C240.946 18.5763 237.386 16.0546 232.59 16.0546C227.25 16.0546 222.651 20.109 221.86 25.449C220.97 31.8272 225.124 36.6233 231.452 36.6233C235.754 36.6233 239.314 34.1017 240.649 30.3934H248.807C246.632 38.3538 239.907 43.9904 231.057 43.9904C219.784 43.9904 212.466 35.7333 213.999 24.8557Z" fill="#FF75A8"/>
<path d="M251.475 29.7996C252.513 22.4819 258.694 17.5869 265.962 17.5869C274.368 17.5869 279.806 23.718 278.669 31.7773C277.631 39.095 271.45 43.99 264.182 43.99C255.777 43.99 250.338 37.8589 251.475 29.7996ZM271.253 31.2829C271.796 27.4757 269.275 24.5585 265.418 24.5585C262.155 24.5585 259.386 27.0307 258.892 30.294C258.348 34.1012 260.82 37.0184 264.726 37.0184C267.989 37.0184 270.758 34.5462 271.253 31.2829Z" fill="#FF75A8"/>
<path d="M285.492 40.1827L283.762 43.3966H276.296L290.387 18.1802H298.645C298.496 25.0529 307.594 24.8057 306.16 34.5955C305.319 40.1827 301.265 43.9899 295.233 43.9899C291.03 43.9899 287.569 42.5066 285.492 40.1827ZM293.305 25.844L288.657 34.3483C289.646 35.98 291.623 37.0183 293.997 37.0183C296.518 37.0183 298.447 35.6833 298.743 33.6561C299.188 30.4917 295.035 29.4039 293.305 25.844Z" fill="#FF75A8"/>
<path d="M310.165 35.1894L311.648 24.7567H307.841L308.78 18.1807H310.857C312.241 18.1807 313.032 17.4884 313.23 16.104L313.873 11.5552H320.696L319.757 18.1807H325.245L324.355 24.7567H318.867L317.532 34.0027C317.285 35.7827 318.224 36.821 320.103 36.821H322.625L321.685 43.397H318.076C312.093 43.397 309.423 40.6282 310.165 35.1894Z" fill="#FF75A8"/>
<path d="M326.284 29.7996C327.371 22.4324 332.86 17.5869 339.337 17.5869C342.897 17.5869 345.666 18.8725 347.446 20.9985L347.841 18.1802H355.06L352.786 34.3978C352.637 35.7823 353.231 36.425 354.516 36.425H355.011L354.022 43.3966H351.994C348.682 43.3966 346.556 42.3583 345.715 40.2322C343.589 42.6055 340.771 43.99 337.606 43.99C329.992 43.99 325.146 37.8589 326.284 29.7996ZM346.012 31.184C346.556 27.3768 344.133 24.5585 340.276 24.5585C336.964 24.5585 334.195 27.0307 333.75 30.294C333.206 34.1012 335.678 37.0184 339.535 37.0184C342.748 37.0184 345.517 34.4967 346.012 31.184Z" fill="#FF75A8"/>
<path d="M10.0274 6.95801C11.7242 6.18284 13.6052 5.70981 15.6026 6.03809C17.6001 6.36645 19.7255 7.58144 21.1514 9.59863C21.6202 10.2632 21.9939 11.0167 22.253 11.792C22.3558 11.6239 22.4768 11.4476 22.6251 11.2559C24.0115 9.45808 26.4447 7.97313 28.6202 7.85645C30.5798 7.75175 31.7447 8.71809 32.8917 9.96387C34.1534 11.3363 35.1876 12.9802 35.4942 14.9795C35.8008 16.979 35.3065 19.3787 33.8311 21.3584C33.3427 22.0149 32.7357 22.6063 32.0733 23.0947C32.271 23.1422 32.4846 23.2051 32.7218 23.29C34.8597 24.0574 37.0216 25.9151 37.8028 27.9482C38.5048 29.7795 37.945 31.1878 37.1124 32.6611C36.1947 34.2848 34.9483 35.7739 33.1407 36.6816C31.3311 37.5894 28.8983 37.8565 26.5587 37.0635C25.7877 36.8005 25.0404 36.409 24.3741 35.9307C24.3879 36.1303 24.3957 36.3477 24.3878 36.5928C24.3205 38.8632 23.2262 41.4956 21.5352 42.8682C20.0124 44.1061 18.4992 44.009 16.8399 43.6748C15.0126 43.3069 13.211 42.5852 11.7872 41.1475C10.3613 39.7097 9.35229 37.4789 9.38191 35.0088C9.3918 34.1921 9.5322 33.3554 9.78133 32.5703C9.59355 32.6474 9.38571 32.7228 9.14461 32.792C6.96525 33.4267 4.1233 33.1933 2.29793 32.0068C0.652526 30.9369 0.278842 29.4671 0.0869904 27.7861C-0.12462 25.935 0.0100977 23.9989 0.939529 22.2012C1.86907 20.4034 3.68261 18.7572 6.04207 18.0254C6.81924 17.7861 7.65405 17.6641 8.47273 17.6582C8.34228 17.504 8.20779 17.3295 8.06746 17.124C6.7899 15.2472 6.13093 12.4744 6.69441 10.3701L6.69832 10.3662C7.2066 8.47152 8.48675 7.66209 10.0274 6.95801ZM15.3751 34.3467C14.1107 35.1512 14.2772 36.6305 15.2462 37.416C15.2253 37.4565 15.2037 37.496 15.1846 37.5361C14.71 38.5111 14.756 39.7671 15.3809 40.667C16.6704 42.6665 19.7536 43.0205 21.5059 41.4561C21.6858 41.2821 21.8424 41.0885 21.963 40.877C21.3421 41.6205 20.3709 41.9387 19.4376 41.9961C16.853 42.1499 14.8374 39.9294 15.9132 37.79C16.0016 37.8219 16.0927 37.8511 16.1876 37.873C17.2259 38.14 18.397 38.0115 19.2257 37.2422C19.7537 36.7576 19.878 35.8794 19.172 35.4463C17.7633 34.6592 16.255 35.805 15.4649 37.0352C15.3552 36.9618 15.252 36.8782 15.1593 36.7812C14.4928 36.1049 14.6354 34.942 15.379 34.3447L15.3751 34.3467ZM16.6563 36.7969C17.2141 36.2411 18.019 35.6856 18.7764 36.0771C18.9109 36.1602 18.9503 36.2292 18.9503 36.3359C18.8514 36.8856 18.1796 37.2004 17.6358 37.3408C17.1781 37.4452 16.6607 37.4576 16.1856 37.3428C16.3179 37.1588 16.4729 36.9754 16.6563 36.7969ZM23.7384 14.1631C23.7205 14.1 23.6457 14.13 23.5509 14.2012C23.5113 14.2308 23.4732 14.2662 23.4376 14.3037C23.1944 14.5588 22.9455 14.8144 22.6925 15.0615C20.5585 17.1381 18.454 19.45 15.8751 20.4844C15.7724 20.5259 15.6794 20.5966 15.6378 20.6953C15.6081 20.7566 15.5977 20.8301 15.5977 20.9072C15.5977 21.0556 15.6046 21.2081 15.6046 21.3564C15.5967 24.6869 15.6551 28.033 15.3604 31.3496C15.3248 31.7036 15.2901 32.0484 15.2149 32.3984C15.1833 32.5547 15.1295 32.7684 15.088 32.9424C14.9912 33.3039 15.151 33.1788 15.3546 33.0879C15.4455 33.0503 15.586 32.9503 15.6671 33.0215C15.6828 33.0372 15.6914 33.0623 15.6993 33.0859C15.7369 33.2224 15.7034 33.4643 15.7647 33.5869C15.7824 33.6082 15.7998 33.6064 15.8253 33.5947C15.847 33.5848 15.867 33.5686 15.8868 33.5508C15.9639 33.4816 16.0809 33.3596 16.1837 33.2568C16.4764 32.9424 16.8481 32.7206 17.2139 32.4932C20.2161 30.7014 23.4043 29.2162 26.5528 27.6914C26.8969 27.5332 26.8098 27.2616 26.794 26.9551C26.719 23.9846 28.0617 20.7274 29.0743 17.7451C29.1752 17.5039 29.1553 17.2167 28.922 17.5527C28.74 17.8731 28.5801 18.2097 28.4239 18.542C27.2491 21.0735 25.9634 23.6071 25.8487 26.6094C25.8368 26.7358 25.8036 26.8447 25.7345 26.9297C25.6791 26.9989 25.6017 27.0502 25.5128 27.0957C25.0974 27.2895 24.682 27.4819 24.2706 27.6836C21.5276 29.0422 18.806 30.5546 16.5059 32.6152C16.4367 32.6746 16.1737 32.9258 16.2706 32.7656C16.6509 32.1279 19.1975 27.8115 19.5811 27.1807C19.6227 27.1391 19.6686 27.153 19.7833 27.1768C20.1649 27.2796 20.5803 27.2972 20.9678 27.1924C22.7951 26.7097 23.1586 24.2615 21.5567 23.2607C19.8994 22.2406 17.8388 23.7559 18.3233 25.6445C18.3985 25.9726 18.6042 26.3066 18.7979 26.5518C18.8473 26.6268 18.8675 26.6567 18.8341 26.7178C18.5631 27.1766 16.838 30.0883 15.9737 31.5479C15.7444 31.9354 15.5761 32.2203 15.5108 32.3291C15.505 32.3369 15.5011 32.3428 15.4971 32.3467C15.4913 32.3525 15.4893 32.3487 15.4893 32.3389C15.5586 32.0323 15.7033 31.5931 15.7745 31.2549C16.5042 28.1025 16.6344 24.8709 16.5909 21.6611C16.5889 21.5444 16.5971 21.4172 16.6446 21.3203C16.6921 21.2216 16.7752 21.1443 16.8839 21.0771C19.526 19.671 21.239 17.4145 22.9932 15.2568C23.2107 14.9919 23.4205 14.7192 23.6221 14.4424C23.6835 14.3672 23.7581 14.2164 23.7423 14.1689L23.7384 14.1631ZM20.2257 23.542C21.0879 23.4372 21.8737 24.0499 21.9786 24.9121C22.0834 25.7744 21.4698 26.5602 20.6075 26.665C19.7453 26.7697 18.9604 26.1561 18.8555 25.2939C18.7508 24.4318 19.3636 23.647 20.2257 23.542ZM25.9854 11.5566C25.0124 11.3193 23.6334 11.0994 23.0479 12.1377L23.0421 12.1357V12.1416C22.514 13.1601 24.1495 14.0622 23.9913 13.54C23.8646 13.198 23.4147 12.8593 23.6065 12.4619C23.8046 12.1717 24.3484 12.2017 24.7042 12.2432C26.3436 12.4945 28.054 13.5602 29.2999 14.6182C29.7765 15.0414 30.2615 15.4942 30.5958 16.04C30.7658 16.3248 30.7575 16.6056 30.461 16.7539C30.2949 16.8429 30.057 16.8666 29.8751 16.916C29.4308 17.0208 29.6599 17.2384 30.0235 17.2998C30.2707 17.3374 30.5303 17.3252 30.7696 17.2461C31.2857 17.0838 31.5966 16.5719 31.4542 16.0459C31.2782 15.3913 30.8425 14.8081 30.4014 14.2979C29.2287 12.9926 27.6823 12.0096 25.9854 11.5566Z" fill="#FF75A8"/>
<path d="M373.03 9.17679C367.973 9.17878 363.871 5.07042 363.868 0C363.87 4.97222 359.929 9.02285 355.007 9.17944C355.007 9.18143 355.007 9.18276 355.007 9.18475C359.885 9.19006 363.87 13.0191 364.139 17.8447C364.144 17.8447 364.149 17.8447 364.154 17.8447C364.158 17.8447 364.164 17.8447 364.168 17.8447C364.433 13.0197 368.415 9.18674 373.292 9.17679C373.292 9.17546 373.292 9.17413 373.292 9.1728C373.204 9.17546 373.117 9.17679 373.029 9.17679H373.03Z" fill="#FF75A8"/>
<path d="M123.614 67.4268C121.601 67.4268 120.069 65.9205 120.069 63.9333V58.5411H121.221V63.908C121.221 65.275 122.247 66.3129 123.614 66.3129C124.993 66.3129 126.019 65.275 126.019 63.908V58.5411H127.17V63.9333C127.17 65.9205 125.639 67.4268 123.614 67.4268ZM131.314 67.2749V58.5411H132.478V67.2749H131.314Z" fill="#F9F3F5"/>
<path d="M144.037 62.8737C142.072 62.8745 140.478 61.2778 140.477 59.3071C140.477 61.2396 138.946 62.8139 137.033 62.8747C137.033 62.8755 137.033 62.876 137.033 62.8768C138.928 62.8789 140.477 64.367 140.582 66.2425C140.584 66.2425 140.586 66.2425 140.587 66.2425C140.589 66.2425 140.591 66.2425 140.593 66.2425C140.696 64.3673 142.243 62.8776 144.139 62.8737C144.139 62.8732 144.139 62.8727 144.139 62.8722C144.105 62.8732 144.071 62.8737 144.037 62.8737H144.037Z" fill="#FF75A8"/>
<path d="M152.144 67.4268C150.131 67.4268 148.6 65.9205 148.6 63.9333V58.5411H149.752V63.908C149.752 65.275 150.777 66.3129 152.144 66.3129C153.524 66.3129 154.549 65.275 154.549 63.908V58.5411H155.701V63.9333C155.701 65.9205 154.169 67.4268 152.144 67.4268ZM159.074 67.2749L162.441 62.8827L159.124 58.5411H160.555L163.289 62.1359L165.997 58.5411H167.428L164.111 62.8827L166.137 65.4269C166.529 65.9205 166.947 66.1863 167.428 66.1863H167.757V67.2749H167.301C166.415 67.2749 165.744 66.8699 165.213 66.1231L163.263 63.6548L160.491 67.2749H159.074Z" fill="#F9F3F5"/>
<path d="M176.948 67.2749V58.5411H180.315C182.847 58.5411 184.745 60.4145 184.745 62.908C184.745 65.4016 182.847 67.2749 180.315 67.2749H176.948ZM180.303 59.6297H178.113V66.1863H180.303C182.151 66.1863 183.556 64.7813 183.556 62.908C183.556 61.0347 182.151 59.6297 180.303 59.6297ZM188.609 67.2749V58.5411H194.203V59.6297H189.773V62.3384H193.786V63.427H189.773V66.1863H194.267V67.2749H188.609ZM200.739 67.4268C198.954 67.4268 197.612 66.2876 197.612 64.8067H198.789C198.789 65.7054 199.65 66.3889 200.751 66.3889C201.789 66.3889 202.625 65.8066 202.625 64.9459C202.625 62.9207 197.764 63.8573 197.764 60.8828C197.764 59.3639 199.08 58.3892 200.701 58.3892C202.371 58.3892 203.65 59.4651 203.65 60.8955H202.473C202.473 60.06 201.701 59.4272 200.675 59.4272C199.739 59.4272 198.954 59.9588 198.954 60.7942C198.954 62.8068 203.814 61.7941 203.814 64.8193C203.814 66.4015 202.447 67.4268 200.739 67.4268ZM207.652 67.2749V58.5411H208.817V67.2749H207.652ZM217.258 67.4268C214.664 67.4268 212.689 65.4775 212.689 62.908C212.689 60.3385 214.664 58.3892 217.258 58.3892C219.246 58.3892 220.879 59.5284 221.461 61.1486H220.17C219.613 60.1487 218.55 59.5031 217.258 59.5031C215.334 59.5031 213.879 60.9714 213.879 62.908C213.879 64.8446 215.334 66.3129 217.258 66.3129C218.942 66.3129 220.182 65.2117 220.448 63.6801H217.575V62.6295H221.676V67.2749H220.689V65.3889C220.068 66.6927 218.853 67.4268 217.258 67.4268ZM225.72 67.2749V58.5411H226.922L231.859 65.3509V58.5411H233.011V67.2749H231.821L226.884 60.4651V67.2749H225.72ZM237.355 67.2749V58.5411H242.95V59.6297H238.52V62.3384H242.532V63.427H238.52V66.1863H243.013V67.2749H237.355ZM246.89 67.2749V58.5411H250.624C252.181 58.5411 253.358 59.6803 253.358 61.1992C253.358 62.6042 252.332 63.6675 250.927 63.7941L252.105 65.4775C252.446 65.9585 252.864 66.1863 253.345 66.1863H253.636V67.2749H253.218C252.269 67.2749 251.535 66.8699 251.029 66.0218L249.56 63.8067H248.054V67.2749H246.89ZM250.611 59.6297H248.054V62.7941H250.611C251.497 62.7941 252.168 62.1232 252.168 61.2119C252.168 60.3005 251.497 59.6297 250.611 59.6297Z" fill="#F9F3F5"/>
</svg>
