<svg width="177" height="211" viewBox="0 0 177 211" fill="none" xmlns="http://www.w3.org/2000/svg">
<path d="M176.599 57.3368C168.854 57.341 162.573 48.5923 162.569 37.7949C162.572 48.3832 156.537 57.009 149 57.3424C149 57.3467 149 57.3495 149 57.3537C156.469 57.365 162.571 65.5189 162.984 75.7949C162.991 75.7949 162.999 75.7949 163.006 75.7949C163.013 75.7949 163.021 75.7949 163.028 75.7949C163.434 65.5203 169.531 57.358 177 57.3368C177 57.3339 177 57.3311 177 57.3283C176.866 57.3339 176.732 57.3368 176.598 57.3368H176.599Z" fill="#CFD6FE"/>
<path d="M79.4598 17.2807C79.5571 17.5726 79.0952 18.497 78.7182 18.9591C77.4777 20.6616 76.1885 22.3397 74.8507 23.9693C64.0639 37.2369 53.5326 51.1125 37.2855 59.759C36.6167 60.1725 36.1059 60.6471 35.8141 61.2551C35.5222 61.851 35.4735 62.6293 35.4857 63.3468C35.7533 83.0841 34.9505 102.955 30.4631 122.34C30.0253 124.419 29.1376 127.119 28.7119 129.004C28.7119 129.065 28.7242 129.089 28.7606 129.053C28.785 129.028 28.8094 128.992 28.8458 128.943C29.2472 128.274 30.2807 126.523 31.6913 124.14C37.0057 115.165 47.61 97.2636 49.2761 94.4423C49.4828 94.0653 49.3613 93.883 49.0573 93.4209C47.8655 91.913 46.6009 89.8576 46.1388 87.8389C43.1593 76.2251 55.8309 66.9097 66.0218 73.1848C75.8723 79.3383 73.6347 94.3938 62.3979 97.3611C60.0143 98.0056 57.4605 97.8961 55.1135 97.2637C54.4081 97.1178 54.1284 97.0327 53.873 97.288C51.5138 101.167 35.8504 127.715 33.5155 131.631C32.9196 132.616 34.5369 131.071 34.9626 130.706C49.1058 118.035 65.8394 108.732 82.7067 100.377C85.2362 99.1366 87.7901 97.957 90.3439 96.7652C90.8911 96.4855 91.3655 96.1692 91.706 95.7436C92.1317 95.2206 92.3382 94.5519 92.4112 93.7736C93.1165 75.3132 101.021 59.7349 108.245 44.1688C109.206 42.1258 110.191 40.0584 111.309 38.0883C112.744 36.0209 112.866 37.7843 112.246 39.2679C106.019 57.6067 97.7621 77.636 98.2242 95.9018C98.3215 97.7868 98.8566 99.4528 96.7406 100.426C77.3802 109.802 57.7767 118.935 39.3163 129.953C37.0665 131.351 34.7803 132.713 32.9805 134.647C32.3481 135.279 31.6306 136.033 31.1563 136.459C31.0347 136.568 30.913 136.665 30.7793 136.726C30.6212 136.799 30.5116 136.811 30.4022 136.677C30.0252 135.923 30.2321 134.44 30.0011 133.601C29.9524 133.455 29.9036 133.297 29.8063 133.2C29.3077 132.762 28.4445 133.382 27.8851 133.613C26.6325 134.173 25.6473 134.939 26.2432 132.713C26.4986 131.643 26.8271 130.33 27.0217 129.369C27.4838 127.216 27.7027 125.1 27.9216 122.924C29.7336 102.53 29.3687 81.9531 29.4174 61.4739C29.4174 60.5618 29.3809 59.6254 29.3809 58.7133C29.3809 58.2391 29.4416 57.789 29.624 57.412C29.8794 56.804 30.4509 56.3661 31.0833 56.1107C46.9412 49.7505 59.8805 35.5344 73.0023 22.7653C74.5589 21.2452 76.0912 19.6763 77.587 18.1076C77.8059 17.8765 78.037 17.6579 78.2802 17.4755C78.864 17.0377 79.326 16.855 79.4355 17.2442L79.4598 17.2807ZM57.8375 74.9119C52.5353 75.5564 48.7655 80.3842 49.41 85.6864C50.0545 90.9886 54.8823 94.7584 60.1845 94.1139C65.4867 93.4694 69.2568 88.6416 68.6123 83.3394C67.9678 78.0372 63.1397 74.2674 57.8375 74.9119ZM75.1913 4.79131C78.791 -1.59322 87.2673 -0.243274 93.2505 1.21605C103.685 4.00092 113.194 10.0451 120.406 18.0713C123.118 21.2089 125.793 24.7962 126.876 28.8215C127.751 32.0563 125.842 35.2061 122.668 36.2033C121.196 36.6897 119.603 36.7627 118.083 36.5317C115.846 36.1547 114.435 34.817 117.171 34.1725C118.29 33.8685 119.749 33.7225 120.771 33.1752C122.595 32.2631 122.643 30.5362 121.598 28.785C119.542 25.4285 116.563 22.6437 113.632 20.0413C105.971 13.5351 95.4517 6.98033 85.3702 5.43588C83.1812 5.1805 79.8369 4.99822 78.6208 6.78589C77.4412 9.23025 80.2138 11.3097 80.9921 13.4136C81.965 16.6241 71.9078 11.0786 75.1548 4.81566V4.77914L75.1913 4.79131Z" fill="#CFD6FE"/>
<path d="M30.7009 146.702C24.8839 147.449 20.4063 153.093 21.7326 158.779C22.893 164.108 27.9492 167.984 32.9261 169.659C36.2296 170.667 40.7657 171.175 43.0483 168.608C43.391 168.048 43.4057 167.558 42.9667 166.691C40.2495 162.206 34.2438 162.539 29.5352 163.665C9.11279 168.296 11.1842 191.201 27.4417 199.861C32.5225 202.555 38.6379 204 44.2812 202.091C42.9695 202.814 41.5281 203.33 40.0256 203.665C25.8149 206.25 10.7766 194.502 10.4269 179.876C10.0354 173.151 13.8257 166.417 19.4436 162.825C27.3397 157.676 41.5404 154.828 47.0656 164.65C49.3798 169.187 45.9088 173.394 41.5843 174.242C34.7692 175.619 28.2152 172.537 23.625 167.806C15.8848 160.207 18.986 146.907 30.6738 146.7L30.7009 146.702Z" fill="#CFD6FE"/>
</svg>
